<svg xmlns="http://www.w3.org/2000/svg" width="300" height="240" viewBox="0 0 300 240">
  <rect x="0" y="0" width="300" height="240" fill="#000"/>
  <!-- Ligne verte complexe style CRT -->
  <polyline points="10,30 40,50 80,40 100,80 120,60 140,100 160,60 180,120 200,80 220,140 240,100 260,180 280,120 260,220 220,200 200,220 180,180 160,200 140,160 120,200 100,160 80,200 60,160 40,220 20,180 30,140 60,120 90,140 120,120 150,140 180,120 210,160 240,140 270,180 290,220" stroke="#0f0" stroke-width="5" fill="none" opacity="0.95"/>
  <polyline points="290,30 260,50 220,40 200,80 180,60 160,100 140,60 120,120 100,80 80,140 60,100 40,180 20,120 40,220 80,200 100,220 120,180 140,200 160,160 180,200 200,160 220,200 240,160 260,220 280,180 270,140 240,120 210,140 180,120 150,140 120,120 90,160 60,140 30,180 10,220" stroke="#0f0" stroke-width="3" fill="none" opacity="0.5"/>
  <!-- Glow effect -->
  <g opacity="0.13">
    <rect x="0" y="0" width="300" height="240" fill="#0f0"/>
  </g>
</svg>
